<svg width="109" height="44" viewBox="0 0 109 44" fill="none" xmlns="http://www.w3.org/2000/svg">
<rect x="3.07996" y="13.5" width="30" height="30" rx="3" fill="#2F6CAA"/>
<path d="M21.4549 27.7126C22.6924 27.0376 23.4799 25.8001 23.4799 24.3376C23.4799 22.0876 21.7924 20.4001 18.0799 20.5126H11.6674V36.4876C11.6674 36.4876 18.4174 36.4876 18.5299 36.4876C21.1174 36.4876 24.38 35.1376 24.38 31.6501C24.4924 29.1751 23.1424 28.0501 21.4549 27.7126ZM15.7175 23.6626H17.9675C17.9675 23.6626 19.4299 23.6626 19.4299 25.1251C19.4299 26.7001 17.9675 26.8126 17.9675 26.8126H15.7175V23.6626ZM18.0799 33.4501H15.7175V29.5126H17.9675C17.9675 29.5126 20.2174 29.2876 20.2174 31.4251C20.2174 33.1126 18.7549 33.4501 18.0799 33.4501Z" fill="white"/>
<rect x="39.08" y="13.5" width="30" height="30" rx="3" fill="#3C599F"/>
<g clip-path="url(#clip0_20_589)">
<path d="M55.5767 37.4999H52.2023V28.4984H49.9526V25.3507H52.2023V23.5516C52.2023 21.0752 52.8765 19.5029 55.9153 19.5029H58.3887V22.6536H56.8134C55.6886 22.6536 55.5767 23.1041 55.5767 23.8903V25.4656H58.3887L58.0501 28.5044H55.5767V37.4999Z" fill="white"/>
</g>
<rect x="75.08" y="13.5" width="30" height="30" rx="3" fill="#D73D32"/>
<g clip-path="url(#clip1_20_589)">
<path fill-rule="evenodd" clip-rule="evenodd" d="M98.3436 26.9353H90.2845V30.2408H94.8929C94.798 30.7638 94.5979 31.2622 94.3047 31.7055C94.0114 32.1489 93.6312 32.5281 93.187 32.8201C92.518 33.2512 91.7582 33.5214 90.9672 33.6095C90.1762 33.6976 89.3755 33.6012 88.6281 33.3278C87.8806 33.0545 87.2067 32.6116 86.6592 32.034C86.1116 31.4564 85.7054 30.7597 85.4724 29.9987C85.2394 29.2377 85.1859 28.4331 85.3161 27.6479C85.4463 26.8628 85.7567 26.1185 86.223 25.4735C86.6892 24.8285 87.2986 24.3003 88.0033 23.9304C88.708 23.5605 89.4888 23.3589 90.2845 23.3415C91.5004 23.3182 92.6763 23.7754 93.5572 24.6138L96.0118 22.1592C94.4609 20.7078 92.4084 19.9132 90.2845 19.9419C89.151 19.9244 88.0253 20.1325 86.9729 20.5542C85.9206 20.9758 84.9627 21.6026 84.1549 22.398C83.3471 23.1934 82.7056 24.1415 82.2677 25.1872C81.8298 26.2329 81.6043 27.3552 81.6043 28.4889C81.6043 29.6225 81.8298 30.7449 82.2677 31.7906C82.7056 32.8362 83.3471 33.7844 84.1549 34.5798C84.9627 35.3752 85.9206 36.0019 86.9729 36.4236C88.0253 36.8452 89.151 37.0533 90.2845 37.0358C92.5918 37.0358 94.5268 36.2708 95.9422 34.9658C97.5581 33.4767 98.4909 31.284 98.4909 28.6842C98.4937 28.098 98.4445 27.5128 98.3436 26.9353Z" fill="white"/>
</g>
<defs>
<clipPath id="clip0_20_589">
<rect width="18" height="18" fill="white" transform="translate(45.08 19.5)"/>
</clipPath>
<clipPath id="clip1_20_589">
<rect width="18" height="18" fill="white" transform="translate(81.08 19.5)"/>
</clipPath>
</defs>
</svg>
